<?xml version="1.0" encoding="utf-8"?>
<!-- Generator: Adobe Illustrator 22.0.1, SVG Export Plug-In . SVG Version: 6.00 Build 0)  -->
<svg version="1.1" id="Слой_1" xmlns="http://www.w3.org/2000/svg" xmlns:xlink="http://www.w3.org/1999/xlink" x="0px" y="0px"
	 viewBox="0 0 150.4 54" style="enable-background:new 0 0 150.4 54;" xml:space="preserve">
<style type="text/css">
	.st0{fill:#00AEEF;}
	.st1{fill:#FFFFFF;}
</style>
<g>
	<path class="st0" d="M123.6,54H26.8C12,54,0,42,0,27.2v-0.4C0,12,12,0,26.8,0l96.8,0c14.8,0,26.8,12,26.8,26.8v0.4
		C150.4,42,138.4,54,123.6,54z"/>
	<g>
		<path class="st1" d="M28,43.4c-9,0-16.3-7.3-16.3-16.3S19,10.8,28,10.8s16.3,7.3,16.3,16.3S37,43.4,28,43.4z M28,13.3
			c-7.6,0-13.8,6.2-13.8,13.8S20.4,40.9,28,40.9c7.6,0,13.8-6.2,13.8-13.8S35.6,13.3,28,13.3z"/>
		<path class="st1" d="M32.3,35.1c0.5,0.1,1.8-0.5,2.1-0.8c0.5-0.4,1.5-1.2,1.6-1.9c0.1-0.8-0.9-1.5-1.4-2c-0.6-0.6-1.4-1.8-2.2-1.8
			c-0.8-0.1-1.5,0.9-2,1.4c-0.9,0.8-1.4,0.3-2.2-0.4c-0.7-0.6-1.4-1.3-2.1-2c-0.5-0.5-1.6-1.5-1.6-2.2c0-0.7,1.2-1.4,1.6-2
			c0.6-0.9,0.1-1.5-0.5-2.1c-0.7-0.7-1.4-1.5-2.1-2.1c-0.9-0.6-1.6,0.2-2.2,0.8c-2.7,2.6-0.2,6.7,1.7,9.1c1.1,1.4,2.4,2.6,3.8,3.6
			C28.5,33.9,30.1,34.7,32.3,35.1z"/>
	</g>
	<g>
		<path class="st1" d="M63.9,39.7c-1.1-1.6-1.6-3.8-1.6-6.6V21.6c0-2.9,0.5-5.1,1.6-6.7c1.1-1.6,3-2.3,5.7-2.3
			c2.5,0,4.2,0.7,5.3,2.1s1.6,3.4,1.6,6.1v1.7h-2.6v-1.7c0-1.4-0.1-2.5-0.3-3.4s-0.6-1.5-1.2-2c-0.6-0.5-1.5-0.7-2.7-0.7
			c-1.3,0-2.2,0.3-2.9,0.8c-0.7,0.5-1.1,1.2-1.4,2.2c-0.2,0.9-0.4,2.1-0.4,3.5v12.3c0,2.2,0.3,3.9,1,4.9c0.7,1,1.9,1.5,3.6,1.5
			c1.7,0,2.8-0.5,3.4-1.6c0.6-1,0.9-2.6,0.9-4.7v-1.9h2.6v1.7c0,2.8-0.5,4.9-1.5,6.4c-1,1.5-2.8,2.2-5.3,2.2
			C66.9,42.1,65,41.3,63.9,39.7z"/>
		<path class="st1" d="M85.2,12.9h2.9l6.1,28.9h-2.7L90.1,34h-6.9l-1.5,7.7h-2.6L85.2,12.9z M89.8,32.1l-3.1-15.6l-3.1,15.6H89.8z"
			/>
		<path class="st1" d="M97.7,12.9h2.7v26.8h8.2v2H97.7V12.9z"/>
		<path class="st1" d="M111.3,12.9h2.7v26.8h8.2v2h-10.9V12.9z"/>
	</g>
</g>
</svg>
