<svg xmlns="http://www.w3.org/2000/svg" viewBox="0 0 150 54"><defs><style>.cls-1{fill:#00acec;}.cls-2,.cls-3{fill:#fff;}.cls-3{font-size:35.65px;font-family:Oswald-Light, Oswald Light;}.cls-4{letter-spacing:0em;}</style></defs><title>Asset 2</title><g id="Layer_2" data-name="Layer 2"><g id="Слой_1" data-name="Слой 1"><rect class="cls-1" width="150" height="54" rx="26.77" ry="26.77"/><path class="cls-2" d="M27.64,43.27A16.3,16.3,0,1,1,43.94,27,16.32,16.32,0,0,1,27.64,43.27Zm0-30.1A13.8,13.8,0,1,0,41.44,27,13.82,13.82,0,0,0,27.64,13.17Z"/><path class="cls-2" d="M31.94,35A4.57,4.57,0,0,0,34,34.19c.51-.41,1.51-1.23,1.61-1.9s-.86-1.5-1.35-2-1.4-1.77-2.25-1.84-1.47.91-2,1.41c-.85.84-1.35.29-2.16-.37a20.17,20.17,0,0,1-2.08-1.95c-.45-.5-1.61-1.52-1.63-2.22s1.19-1.4,1.6-2c.63-.86.1-1.45-.54-2.11a15.65,15.65,0,0,0-2.14-2.09c-.92-.63-1.56.18-2.19.8-2.66,2.62-.19,6.66,1.68,9.07a17.1,17.1,0,0,0,3.8,3.55A12.69,12.69,0,0,0,31.94,35Z"/><text class="cls-3" transform="translate(60 41.64)"><tspan class="cls-4">C</tspan><tspan x="20.82" y="0">ALL</tspan></text></g></g></svg>