<?xml version="1.0" encoding="utf-8"?>
<!-- Generator: Adobe Illustrator 22.0.1, SVG Export Plug-In . SVG Version: 6.00 Build 0)  -->
<svg version="1.1" id="Слой_1" xmlns="http://www.w3.org/2000/svg" xmlns:xlink="http://www.w3.org/1999/xlink" x="0px" y="0px"
	 viewBox="0 0 150.4 54" style="enable-background:new 0 0 150.4 54;" xml:space="preserve">
<style type="text/css">
	.st0{fill:#009444;}
	.st1{enable-background:new    ;}
	.st2{fill:#FFFFFF;}
</style>
<g>
	<path class="st0" d="M123.6,54H26.8C12,54,0,42,0,27.2v-0.4C0,12,12,0,26.8,0h96.8c14.8,0,26.8,12,26.8,26.8v0.4
		C150.4,42,138.4,54,123.6,54z"/>
	<g class="st1">
		<path class="st2" d="M66,15h-5.8v-2.1h14.2V15h-5.7v26.8H66V15z"/>
		<path class="st2" d="M76.7,12.9h10.4V15h-7.7v10.8h6.3v2h-6.3v11.9h7.8v2H76.7V12.9z"/>
		<path class="st2" d="M95.1,26.7L89,12.9h2.5l5.2,11.5l5-11.5h2.6L97.9,27l6.6,14.7h-2.6l-5.5-12.2l-4.8,12.2h-2.6L95.1,26.7z"/>
		<path class="st2" d="M110.5,15h-5.8v-2.1h14.2V15h-5.7v26.8h-2.7V15z"/>
	</g>
	<g id="WA_Logo">
		<g>
			<path class="st2" d="M38.7,16.2c-2.8-2.8-6.6-4.4-10.6-4.4c-8.2,0-15,6.7-15,15c0,2.6,0.7,5.2,2,7.5L13,42l7.9-2.1
				c2.2,1.2,4.6,1.8,7.1,1.8l0,0l0,0c8.2,0,15-6.7,15-15C43.1,22.8,41.5,19,38.7,16.2z M28.1,39.2L28.1,39.2c-2.2,0-4.4-0.6-6.3-1.7
				l-0.5-0.3l-4.7,1.2l1.3-4.6l-0.3-0.5c-1.2-2-1.9-4.3-1.9-6.6c0-6.9,5.6-12.4,12.4-12.4c3.3,0,6.4,1.3,8.8,3.6
				c2.3,2.3,3.6,5.5,3.6,8.8C40.5,33.6,34.9,39.2,28.1,39.2z M34.9,29.9c-0.4-0.2-2.2-1.1-2.6-1.2c-0.3-0.1-0.6-0.2-0.8,0.2
				c-0.2,0.4-1,1.2-1.2,1.5c-0.2,0.2-0.4,0.3-0.8,0.1c-0.4-0.2-1.6-0.6-3-1.9c-1.1-1-1.9-2.2-2.1-2.6s0-0.6,0.2-0.8
				c0.2-0.2,0.4-0.4,0.6-0.7c0.2-0.2,0.2-0.4,0.4-0.6c0.1-0.2,0.1-0.5,0-0.7s-0.8-2-1.2-2.8c-0.3-0.7-0.6-0.6-0.8-0.6
				c-0.2,0-0.5,0-0.7,0s-0.7,0.1-1,0.5s-1.3,1.3-1.3,3.1c0,1.8,1.3,3.6,1.5,3.9c0.2,0.2,2.6,4,6.4,5.6c0.9,0.4,1.6,0.6,2.1,0.8
				c0.9,0.3,1.7,0.2,2.4,0.1c0.7-0.1,2.2-0.9,2.5-1.8s0.3-1.6,0.2-1.8C35.5,30.2,35.3,30.1,34.9,29.9z"/>
		</g>
	</g>
</g>
</svg>
