<?xml version="1.0" encoding="utf-8"?>
<!-- Generator: Adobe Illustrator 22.0.1, SVG Export Plug-In . SVG Version: 6.00 Build 0)  -->
<svg version="1.1" id="Слой_1" xmlns="http://www.w3.org/2000/svg" xmlns:xlink="http://www.w3.org/1999/xlink" x="0px" y="0px"
	 viewBox="0 0 201 73.7" style="enable-background:new 0 0 201 73.7;" xml:space="preserve">
<style type="text/css">
	.st0{fill:#FFFFFF;}
</style>
<g>
	<path class="st0" d="M1.9,72C0.6,70.3,0,67.8,0,64.4V49.3c0-3.4,0.6-6.1,1.9-8.2C3.2,39,5.5,37.6,8.7,37c3-0.6,5.1-0.1,6.3,1.4
		c1.2,1.5,1.8,3.8,1.8,7.1v1.8l-2.3,0.4v-1.8c0-2.7-0.4-4.7-1.3-5.8c-0.9-1.2-2.4-1.5-4.6-1.1c-2.4,0.5-4,1.5-4.9,3.1
		c-0.9,1.6-1.3,3.8-1.3,6.5v15.8c0,2.8,0.5,4.8,1.4,6c0.9,1.2,2.5,1.6,4.9,1.1c2.2-0.4,3.8-1.4,4.6-2.9c0.8-1.5,1.3-3.6,1.3-6.3
		v-2.2l2.3-0.4v1.8c0,3.3-0.6,6-1.8,8.1c-1.2,2.1-3.3,3.4-6.3,4C5.4,74.1,3.2,73.6,1.9,72z"/>
	<path class="st0" d="M23.3,34.5l2.4-0.5v16.1l12.5-2.4V31.6l2.4-0.5v35.6l-2.4,0.5V49.5l-12.5,2.4v17.7l-2.4,0.5V34.5z"/>
	<path class="st0" d="M53.9,28.6l2.8-0.5l7.5,34.2l-2.4,0.5l-1.8-9.5L50.7,55l-1.9,10.2l-2.4,0.5L53.9,28.6z M59.6,51.5l-4.3-20.3
		L51,53.1L59.6,51.5z"/>
	<path class="st0" d="M70.6,25.3l2.4-0.5l7.5,30.7l7.7-33.7l2.5-0.5l1,35.4l-2.1,0.4l-0.9-29.7l-7.3,31.3l-1.8,0.3l-7.2-28.4
		l-0.9,30l-2.1,0.4L70.6,25.3z"/>
	<path class="st0" d="M98.9,19.8l8.4-1.6c3-0.6,5.2-0.2,6.4,1.2c1.2,1.4,1.9,3.5,1.9,6.4c0,2.7-0.6,5.1-1.9,7.1
		c-1.3,2-3.4,3.3-6.3,3.9l-6,1.2v17l-2.4,0.5V19.8z M106.8,35c2.2-0.4,3.8-1.3,4.8-2.7c1-1.4,1.5-3.4,1.5-6.1c0-1.9-0.2-3.3-0.6-4.3
		c-0.4-1-1.1-1.6-2-1.9c-0.9-0.3-2.1-0.2-3.7,0.1l-5.5,1.1v14.9L106.8,35z"/>
	<path class="st0" d="M125.2,14.7l2.8-0.5l7.5,34.2l-2.4,0.5l-1.8-9.5l-9.2,1.8l-1.9,10.2l-2.4,0.5L125.2,14.7z M130.9,37.6
		l-4.3-20.3l-4.3,22L130.9,37.6z"/>
	<path class="st0" d="M142.4,44.7c-1.3-1.6-1.9-4.2-1.9-7.6V21.9c0-3.4,0.6-6.1,1.9-8.2c1.3-2.1,3.5-3.4,6.8-4
		c3-0.6,5.1-0.1,6.3,1.4c1.3,1.5,1.9,3.9,1.9,7.2v1.2l-2.3,0.4v-1.4c0-2.8-0.4-4.7-1.3-5.8c-0.9-1.1-2.4-1.5-4.6-1.1
		c-2.4,0.5-4.1,1.5-5,3.1c-0.9,1.6-1.3,3.8-1.3,6.6v15.5c0,2.8,0.5,4.9,1.4,6.1c0.9,1.3,2.6,1.7,4.9,1.2c2.2-0.4,3.8-1.4,4.7-3
		c0.9-1.6,1.3-3.8,1.3-6.6v-5.2l-5.7,1.1v-1.8l7.9-1.5v17l-1.5,0.3l-0.4-3.9c-0.5,1.6-1.2,2.8-2.3,3.8c-1,1-2.5,1.6-4.2,2
		C145.9,46.8,143.7,46.3,142.4,44.7z"/>
	<path class="st0" d="M164.8,7l1.9-0.4l12.1,27.7V4.3l2.1-0.4v35.6l-1.9,0.4l-12.1-27.8v30.1l-2.1,0.4V7z"/>
	<path class="st0" d="M188.5,2.4L200.9,0v1.9L191,3.9v14.3l8.1-1.6v1.8L191,20v15.7l10-2v1.9L188.5,38V2.4z"/>
</g>
</svg>
