<?xml version="1.0" encoding="utf-8"?>
<!-- Generator: Adobe Illustrator 22.0.1, SVG Export Plug-In . SVG Version: 6.00 Build 0)  -->
<svg version="1.1" id="Слой_1" xmlns="http://www.w3.org/2000/svg" xmlns:xlink="http://www.w3.org/1999/xlink" x="0px" y="0px"
	 viewBox="0 0 281 106.8" style="enable-background:new 0 0 281 106.8;" xml:space="preserve">
<style type="text/css">
	.st0{fill:#FFFFFF;}
</style>
<g>
	<g>
		<path class="st0" d="M4.9,55C3.6,53.4,3,50.9,3,47.5v-3.4l-3,0.6v-1.4l3-0.6v-6.5l-3,0.6v-1.4l3-0.6v-2.4c0-3.4,0.6-6.1,1.9-8.2
			c1.3-2.1,3.5-3.5,6.7-4.1c3-0.6,5.1-0.1,6.3,1.4c1.2,1.5,1.8,3.8,1.8,7.1V30l-2.3,0.4v-1.5c0-2.7-0.4-4.7-1.3-5.8
			c-0.9-1.2-2.4-1.5-4.6-1.1c-2.4,0.5-4,1.5-4.9,3.1c-0.9,1.6-1.3,3.8-1.3,6.5v2.7l6.3-1.2v1.4l-6.3,1.2v6.5l6.3-1.2v1.4l-6.3,1.2
			v3.7c0,2.8,0.5,4.8,1.4,6c0.9,1.2,2.5,1.6,4.9,1.1c2.2-0.4,3.8-1.4,4.6-2.9c0.8-1.5,1.3-3.6,1.3-6.3v-1.8l2.3-0.4v1.5
			c0,3.3-0.6,6-1.8,8.1c-1.2,2.1-3.3,3.4-6.3,4C8.4,57.2,6.1,56.7,4.9,55z"/>
		<path class="st0" d="M27.5,51.3c-1.2-1.2-1.8-3.2-1.8-5.9v-0.7l2.2-0.4V45c0,2.1,0.5,3.7,1.3,4.6c0.8,0.9,2.2,1.2,4,0.9
			c1.8-0.4,3.2-1.2,4.3-2.6c1-1.4,1.6-3.6,1.6-6.6c0-5.4-1.9-7.7-5.7-7l-1,0.2v-2.1l1-0.2c2.1-0.4,3.5-1.3,4.4-2.7
			c0.9-1.4,1.3-3.4,1.3-6.1c0-4.6-1.8-6.5-5.3-5.8c-2,0.4-3.4,1.2-4.4,2.3c-0.9,1.2-1.4,2.9-1.5,5.3v0.5l-2.2,0.4v-0.6
			c0-2.6,0.6-4.8,1.9-6.5c1.2-1.7,3.3-2.8,6.1-3.4c2.6-0.5,4.6-0.1,5.9,1.3c1.3,1.4,1.9,3.3,1.9,6c0,2.6-0.5,4.7-1.4,6.3
			c-0.9,1.6-2.1,2.8-3.7,3.4c1.3,0.1,2.5,0.7,3.5,2s1.5,3.3,1.5,6.1c0,3.1-0.7,5.7-2,7.7c-1.3,2-3.4,3.3-6.3,3.9
			C30.6,52.9,28.7,52.5,27.5,51.3z"/>
		<path class="st0" d="M50.4,47.1c-1.3-1.1-1.9-3-1.9-5.7v-0.8l2.2-0.4c0,1.8,0.2,3.1,0.5,4c0.4,0.9,0.9,1.5,1.7,1.8
			c0.8,0.3,1.9,0.3,3.3,0c1.8-0.3,3.1-1.2,4-2.5c0.9-1.3,1.3-3.4,1.3-6.3v-7.5c-0.6,0.6-1.4,1.2-2.4,1.8c-1,0.6-2.2,1-3.7,1.3
			c-2,0.4-3.5,0.3-4.6-0.1c-1.1-0.5-1.9-1.4-2.4-2.9c-0.5-1.5-0.7-3.6-0.7-6.4c0-3.4,0.7-6.1,2-8.1c1.3-2,3.4-3.3,6.3-3.9
			c2.7-0.5,4.7,0,6,1.5c1.2,1.5,1.9,4.2,1.9,7.8v15.5c0,3.3-0.6,5.9-1.8,7.9c-1.2,2-3.2,3.2-5.9,3.7C53.6,48.4,51.6,48.1,50.4,47.1z
			 M59.3,29.6c0.9-0.5,1.7-1.1,2.3-1.7v-6.6c0-2.3-0.2-4-0.6-5.3c-0.4-1.2-1-2-1.8-2.4c-0.8-0.4-1.8-0.4-3.1-0.2
			c-2,0.4-3.4,1.3-4.4,2.7c-1,1.4-1.5,3.6-1.5,6.6c0,2.4,0.1,4.3,0.4,5.5c0.3,1.2,0.8,2,1.6,2.5c0.8,0.4,2.1,0.5,3.7,0.2
			C57.3,30.5,58.4,30.1,59.3,29.6z"/>
		<path class="st0" d="M70.8,40l2.6-0.5v4.6l-2.6,0.5V40z"/>
		<path class="st0" d="M82,40.9c-1.3-1.1-1.9-3-1.9-5.7v-0.8l2.2-0.4c0,1.8,0.2,3.1,0.5,4c0.4,0.9,0.9,1.5,1.7,1.8
			c0.8,0.3,1.9,0.3,3.3,0c1.8-0.3,3.1-1.2,4-2.5c0.9-1.3,1.3-3.4,1.3-6.3v-7.5c-0.6,0.6-1.4,1.2-2.4,1.8c-1,0.6-2.2,1-3.7,1.3
			c-2,0.4-3.5,0.3-4.6-0.1c-1.1-0.5-1.9-1.4-2.4-2.9c-0.5-1.5-0.7-3.6-0.7-6.4c0-3.4,0.7-6.1,2-8.1c1.3-2,3.4-3.3,6.3-3.9
			c2.7-0.5,4.7,0,6,1.5c1.2,1.5,1.9,4.2,1.9,7.8v15.5c0,3.3-0.6,5.9-1.8,7.9c-1.2,2-3.2,3.2-5.9,3.7C85.2,42.3,83.3,42,82,40.9z
			 M90.9,23.4c0.9-0.5,1.7-1.1,2.3-1.7v-6.6c0-2.3-0.2-4-0.6-5.3c-0.4-1.2-1-2-1.8-2.4C90,7.1,89,7,87.7,7.2c-2,0.4-3.4,1.3-4.4,2.7
			s-1.5,3.6-1.5,6.6c0,2.4,0.1,4.3,0.4,5.5c0.3,1.2,0.8,2,1.7,2.5c0.8,0.4,2.1,0.5,3.7,0.2C88.9,24.4,90,24,90.9,23.4z"/>
		<path class="st0" d="M104.9,36.1c-1.2-1.3-1.8-3.4-1.8-6.5l2.3-0.4c0,2.5,0.4,4.3,1.2,5.3c0.8,1,2.2,1.3,4.1,0.9
			c1.4-0.3,2.5-0.8,3.3-1.6c0.8-0.8,1.4-1.9,1.7-3.4c0.3-1.4,0.5-3.3,0.5-5.5c0-2.5-0.2-4.4-0.6-5.7c-0.4-1.3-1-2.2-1.8-2.6
			c-0.8-0.4-1.8-0.5-3.1-0.3c-2.1,0.4-3.7,1.7-5,4l-1.9,0.4V2.5L116.8,0l0,2l-10.9,2.1L105.8,18c0.5-0.9,1.3-1.6,2.2-2.3
			c1-0.7,2.1-1.1,3.4-1.4c2.4-0.5,4.2,0.1,5.4,1.8c1.1,1.6,1.7,4.3,1.7,8.1c0,4-0.6,7-1.9,9.1c-1.3,2.1-3.3,3.4-6,4
			C108,37.8,106.1,37.4,104.9,36.1z"/>
	</g>
	<g>
		<path class="st0" d="M3,99l2.1-1.1c0.4,2.6,1,4.4,1.9,5.6c0.9,1.1,2.5,1.5,4.6,1.1c3.8-0.7,5.7-3,5.7-6.8c0-1.5-0.4-2.7-1.1-3.8
			c-0.7-1.1-1.9-2.2-3.5-3.5l-6.5-5.2C4.1,83.5,3,81.5,3,79c0-2.3,0.7-4.2,2.1-5.8c1.4-1.5,3.3-2.6,5.7-3c2.6-0.5,4.5-0.2,5.9,0.9
			c1.4,1.1,2.2,3.2,2.4,6.4l-2,0.9c-0.2-2.5-0.8-4.3-1.7-5.3c-0.9-1-2.3-1.4-4.3-1c-1.8,0.3-3.2,1.1-4.3,2.1
			c-1.1,1.1-1.6,2.5-1.6,4.2c0,0.9,0.2,1.8,0.6,2.6c0.4,0.8,1.1,1.6,2,2.3l6.4,5.1c1.6,1.3,2.9,2.6,3.9,4c0.9,1.4,1.4,3,1.4,4.7
			c0,2.6-0.7,4.7-2.2,6.3c-1.4,1.6-3.4,2.6-5.8,3.1C6.3,107.6,3.5,105,3,99z"/>
		<path class="st0" d="M25.4,67.8l2.4-0.5v20l10.3-22l2.4-0.5L33,81.4l9.3,18.7l-2.4,0.5l-8.4-16.8l-3.7,7.5V103l-2.4,0.5V67.8z"/>
		<path class="st0" d="M47.9,96.7c-1.3-1.6-2-4.1-2-7.4V73.7c0-3.3,0.7-6,2-8c1.3-2.1,3.6-3.4,6.8-4c3.2-0.6,5.4-0.1,6.8,1.4
			c1.3,1.6,2,4,2,7.2v15.6c0,3.3-0.7,6.1-2,8.2c-1.3,2.1-3.6,3.5-6.8,4.1C51.4,98.8,49.2,98.4,47.9,96.7z M59.7,93.2
			c0.9-1.6,1.4-3.7,1.4-6.3V70.4c0-2.6-0.5-4.5-1.4-5.7c-0.9-1.2-2.6-1.5-5-1.1c-2.4,0.5-4.1,1.5-5,3c-0.9,1.5-1.4,3.6-1.4,6.3v16.5
			c0,2.7,0.5,4.6,1.4,5.8c0.9,1.2,2.6,1.5,5,1.1C57.1,95.8,58.8,94.7,59.7,93.2z"/>
		<path class="st0" d="M70.5,59l7.8-1.5c3.3-0.6,5.7-0.2,7,1.4c1.4,1.6,2.1,3.9,2.1,7.1v14.8c0,3.3-0.7,6.1-2,8.2
			c-1.3,2.1-3.6,3.5-6.9,4.1l-8,1.6V59z M78.3,91.2c1.8-0.4,3.2-1,4.2-2s1.6-2.1,1.9-3.5c0.3-1.4,0.5-3,0.5-4.8V66.6
			c0-2.8-0.5-4.9-1.4-6.1c-1-1.2-2.7-1.6-5.3-1.1l-5.4,1.1v31.8L78.3,91.2z"/>
		<path class="st0" d="M99.8,53.3l2.8-0.5l7.5,34.2l-2.4,0.5l-1.8-9.5l-9.2,1.8L94.7,90l-2.4,0.5L99.8,53.3z M105.5,76.2L101.2,56
			l-4.3,22L105.5,76.2z"/>
		<path class="st0" d="M125.3,48.4l8.6-1.7c2.9-0.6,5-0.2,6.1,1.1c1.1,1.3,1.7,3.4,1.7,6.1c0,2.3-0.4,4.3-1.1,5.9
			c-0.7,1.6-2.1,2.8-4.1,3.5l5.7,17.3l-2.4,0.5l-5.5-16.9l-6.6,1.3v18l-2.4,0.5V48.4z M133.8,62.5c2.1-0.4,3.6-1.3,4.4-2.6
			c0.8-1.3,1.2-3.2,1.2-5.5c0-2.4-0.4-4.1-1.2-5c-0.8-0.9-2.3-1.2-4.4-0.8l-6.1,1.2v13.9L133.8,62.5z"/>
		<path class="st0" d="M154.3,42.7l2.8-0.5l7.5,34.2l-2.4,0.5l-1.8-9.5l-9.2,1.8l-1.9,10.2l-2.4,0.5L154.3,42.7z M160,65.6
			l-4.3-20.3l-4.3,21.9L160,65.6z"/>
		<path class="st0" d="M170.4,39.6l8.4-1.6c3-0.6,5.2-0.2,6.4,1.2c1.2,1.4,1.9,3.5,1.9,6.4c0,2.7-0.6,5.1-1.9,7.1
			c-1.3,2-3.4,3.3-6.3,3.9l-6,1.2v17l-2.4,0.5V39.6z M178.3,54.8c2.2-0.4,3.8-1.3,4.8-2.7c1-1.4,1.5-3.4,1.5-6.1
			c0-1.9-0.2-3.3-0.6-4.3c-0.4-1-1.1-1.6-2-1.9c-0.9-0.3-2.1-0.2-3.7,0.1l-5.5,1.1v14.9L178.3,54.8z"/>
		<path class="st0" d="M192.9,35.2l2.4-0.5v35.6l-2.4,0.5V35.2z"/>
		<path class="st0" d="M203,33.3l7.8-1.5c3.3-0.6,5.7-0.2,7,1.4c1.4,1.6,2.1,3.9,2.1,7.1V55c0,3.3-0.7,6.1-2,8.2
			c-1.3,2.1-3.6,3.5-6.9,4.1l-8,1.6V33.3z M210.9,65.5c1.8-0.4,3.2-1,4.2-2c1-1,1.6-2.1,1.9-3.5c0.3-1.4,0.5-3,0.5-4.8V40.9
			c0-2.8-0.5-4.9-1.4-6.1c-1-1.2-2.7-1.6-5.3-1.1l-5.4,1.1v31.8L210.9,65.5z"/>
		<path class="st0" d="M235.2,27l2.4-0.5l2.4,8.1l-1.2,0.2L235.2,27z"/>
		<path class="st0" d="M252.4,26.9c-0.5,0.8-1.2,1.5-2.3,2.3c-1.1,0.7-2,1.3-2.8,1.7v-2c0.9-0.4,1.8-1.1,2.9-2.1
			c1.1-1,1.9-2,2.6-3.1l2-0.4v35.6l-2.4,0.5V26.9z"/>
		<path class="st0" d="M264.8,47.6c0-2.2,0.3-3.9,0.8-5.3c0.6-1.4,1.2-2.4,2-3.1c0.7-0.7,1.7-1.4,2.8-2.1c-1.6-0.1-2.9-0.9-3.9-2.1
			c-0.9-1.3-1.4-3.1-1.4-5.4c0-2.7,0.6-5,1.8-6.8c1.2-1.8,3.2-3,6-3.5c2.8-0.5,4.7-0.1,6,1.3c1.2,1.4,1.8,3.4,1.8,6.2
			c0,2.3-0.5,4.3-1.4,5.9c-0.9,1.6-2.2,2.8-3.8,3.6c1.1,0.3,2,0.6,2.7,1c0.7,0.4,1.4,1.2,2,2.3c0.6,1.2,0.8,2.8,0.8,5
			c0,6.5-2.7,10.3-8.1,11.3C267.5,56.9,264.8,54.1,264.8,47.6z M277.2,51.2c1-1.4,1.5-3.5,1.5-6.4c0-2.5-0.5-4.4-1.4-5.6
			c-0.9-1.2-2.4-1.7-4.4-1.6c-2.1,0.6-3.6,1.7-4.5,3.3c-0.9,1.6-1.4,3.6-1.4,6.1c0,2.8,0.5,4.7,1.5,5.8c1,1,2.5,1.4,4.3,1
			C274.7,53.5,276.2,52.7,277.2,51.2z M277.1,32.7c0.9-1.4,1.3-3.3,1.3-5.6c0-2.4-0.4-4-1.3-5c-0.9-0.9-2.3-1.2-4.2-0.9
			c-1.9,0.4-3.3,1.2-4.2,2.5c-0.9,1.3-1.4,3.1-1.4,5.5c0,2.3,0.4,4,1.3,5.1c0.9,1.1,2.3,1.5,4.3,1.3
			C274.9,35.1,276.3,34.2,277.1,32.7z"/>
	</g>
</g>
</svg>
