<?xml version="1.0" encoding="utf-8"?>
<!-- Generator: Adobe Illustrator 22.0.1, SVG Export Plug-In . SVG Version: 6.00 Build 0)  -->
<svg version="1.1" id="Слой_1" xmlns="http://www.w3.org/2000/svg" xmlns:xlink="http://www.w3.org/1999/xlink" x="0px" y="0px"
	 viewBox="0 0 99.3 53.7" style="enable-background:new 0 0 99.3 53.7;" xml:space="preserve">
<style type="text/css">
	.st0{fill:#FFFFFF;}
</style>
<g>
	<path class="st0" d="M0,19.3l2.1-0.5l5.2,29.9l5.7-31.3l2.3-0.4l5.9,29L26,14.2l2.1-0.4l-5.8,36.8l-2,0.4l-6.1-30L8.3,53.3
		l-2.1,0.4L0,19.3z"/>
	<path class="st0" d="M33.9,12.7l2.4-0.5v16.1l12.5-2.4V9.8l2.4-0.5V45l-2.4,0.5V27.7l-12.5,2.4v17.7l-2.4,0.5V12.7z"/>
	<path class="st0" d="M59,7.8l2.4-0.5V43L59,43.5V7.8z"/>
	<path class="st0" d="M73,7l-7.6,1.5V6.6l17.3-3.4v1.9l-7.4,1.4v33.7L73,40.7V7z"/>
	<path class="st0" d="M86.9,2.4L99.2,0v1.9l-9.9,1.9v14.3l8.1-1.6v1.8L89.3,20v15.7l10-2v1.9L86.9,38V2.4z"/>
</g>
</svg>
