<svg id="Слой_2" xmlns="http://www.w3.org/2000/svg" viewBox="0 0 303.8 87.5"><path d="M.9 52.4l3.4-.6 7.1 29 7.3-31.6 3.4-.6.9 34.8-2.8.5-.7-27.7-6.9 29-2.2.4-6.9-26.5L2.8 87l-2.8.5.9-35.1zm28.2-5l3.4-.6v34.9l-3.4.6V47.4zm9.8-1.8l2.5-.4 11.5 25V43.1l2.9-.5v34.9l-2.4.4-11.6-25.3V80l-2.9.5V45.6zm24.3 28.5c-1.5-1.4-2.3-3.6-2.5-6.5l3-1.4c.3 2.4.8 4.2 1.7 5.4.9 1.2 2.3 1.6 4.3 1.2 3.4-.6 5.1-2.6 5.1-6 0-1.4-.3-2.6-1-3.6s-1.8-2-3.4-3.2L64 55.3c-1.1-.9-2-1.8-2.5-2.8-.5-1-.8-2.2-.8-3.6 0-2.4.7-4.4 2.2-5.9 1.5-1.6 3.5-2.6 6.1-3 2.6-.5 4.7-.1 6.1 1 1.4 1.1 2.2 3.2 2.5 6.3l-2.9 1.3c-.2-2.3-.7-4-1.5-5s-2.1-1.4-4-1c-1.6.3-2.9.9-3.9 1.8s-1.4 2.2-1.4 3.7c0 .9.2 1.8.6 2.5.4.7 1 1.4 2 2.1l6.4 4.7c1.6 1.2 2.9 2.5 3.9 3.9.9 1.4 1.4 3 1.4 4.8 0 2.5-.8 4.6-2.3 6.3-1.5 1.7-3.5 2.7-6 3.1-3 .5-5.2 0-6.7-1.4zm19.3-36.3l3.4-.6v18.4l9.6-20.2 3.3-.6-7.4 16.3 9 18.3-3.3.6-7.9-16-3.2 6.3v11.8l-3.4.6V37.8zM114 64.6c-1.4-1.7-2-4.2-2-7.7V43.1c0-3.5.7-6.3 2-8.4 1.4-2.1 3.7-3.5 7.1-4.1 3.1-.6 5.3-.1 6.6 1.4 1.3 1.5 2 3.8 2 7v2.1l-3.2.6v-2c0-1.7-.1-3-.4-4-.3-1-.8-1.7-1.6-2.2-.8-.4-1.9-.5-3.3-.3-1.6.3-2.8.8-3.6 1.6-.8.8-1.4 1.8-1.7 2.9-.3 1.2-.4 2.6-.4 4.3v14.9c0 2.7.4 4.6 1.3 5.7.8 1.1 2.3 1.4 4.5 1.1 2.1-.4 3.5-1.3 4.2-2.6.7-1.4 1.1-3.3 1.1-5.9v-2.3l3.2-.6v2.1c0 3.3-.6 6-1.9 8.1-1.3 2-3.5 3.3-6.6 3.9-3.6.4-6-.1-7.3-1.8zm26.6-37.2l3.6-.6 7.7 33.5-3.3.6-1.8-9-8.6 1.5-1.8 9.7-3.3.6 7.5-36.3zm5.7 22.2l-3.8-18.1-3.9 19.5 7.7-1.4zm9.9-25l8.2-1.5c3.2-.6 5.5-.2 6.9 1 1.4 1.3 2 3.3 2 6.2 0 2.2-.4 4.1-1.1 5.7-.7 1.6-2 2.7-3.9 3.4l5.5 16.8-3.3.6-5.3-16.2-5.7 1v17.1l-3.4.6.1-34.7zm8 13.9c2.2-.4 3.7-1.2 4.5-2.4.9-1.2 1.3-2.9 1.3-5.1 0-2.3-.4-3.8-1.2-4.7-.8-.9-2.3-1.1-4.5-.7l-4.7.8v12.9l4.6-.8zm23.9-19.6l8.2-1.5c3.2-.6 5.5-.2 6.9 1 1.4 1.3 2 3.3 2 6.2 0 2.2-.4 4.1-1.1 5.7-.7 1.6-2 2.7-3.9 3.4l5.5 16.8-3.3.6-5.3-16.1-5.7 1v17.1l-3.4.6V18.9zm8 13.9c2.2-.4 3.7-1.2 4.5-2.4.9-1.2 1.3-2.9 1.3-5.1 0-2.3-.4-3.8-1.2-4.7-.8-.9-2.3-1.1-4.5-.7l-4.7.8v12.9l4.6-.8zm14.8-18l13.1-2.3V15l-9.6 1.7v13.1l7.8-1.4v2.4l-7.8 1.4v14.4l9.7-1.7v2.5L211 49.8v-35zm17.8-3.2l2.5-.4 11.5 25V9.1l2.9-.5v34.9l-2.4.4-11.5-25.3V46l-2.9.5V11.6zm27-2.3l-7.3 1.3V8.1l17.7-3.2v2.5L259 8.7v32.4l-3.4.6V9.3zm18.9-5.9l3.6-.6 7.7 33.5-3.3.6-1.8-9-8.6 1.5-1.8 9.7-3.3.6 7.5-36.3zm5.7 22.2l-3.8-18.1-3.8 19.5 7.6-1.4zm9.9-25l3.4-.6v32.4l10.2-1.8v2.5l-13.6 2.4V.6z" fill="#cb3340"/></svg>