<?xml version="1.0" encoding="utf-8"?>
<!-- Generator: Adobe Illustrator 22.0.1, SVG Export Plug-In . SVG Version: 6.00 Build 0)  -->
<svg version="1.1" id="Слой_2" xmlns="http://www.w3.org/2000/svg" xmlns:xlink="http://www.w3.org/1999/xlink" x="0px" y="0px"
	 viewBox="0 0 303.8 87.5" style="enable-background:new 0 0 303.8 87.5;" xml:space="preserve">
<style type="text/css">
	.st0{fill:#CB3340;}
</style>
<g>
	<path class="st0" d="M0.9,52.4l3.4-0.6l7.1,29l7.3-31.6l3.4-0.6L23,83.4l-2.8,0.5l-0.7-27.7l-6.9,29l-2.2,0.4L3.5,59.1L2.8,87
		L0,87.5L0.9,52.4z"/>
	<path class="st0" d="M29.1,47.4l3.4-0.6v34.9l-3.4,0.6V47.4z"/>
	<path class="st0" d="M38.9,45.6l2.5-0.4l11.5,25V43.1l2.9-0.5v34.9l-2.4,0.4L41.8,52.6V80l-2.9,0.5V45.6z"/>
	<path class="st0" d="M63.2,74.1c-1.5-1.4-2.3-3.6-2.5-6.5l3-1.4c0.3,2.4,0.8,4.2,1.7,5.4c0.9,1.2,2.3,1.6,4.3,1.2
		c3.4-0.6,5.1-2.6,5.1-6c0-1.4-0.3-2.6-1-3.6c-0.7-1-1.8-2-3.4-3.2L64,55.3c-1.1-0.9-2-1.8-2.5-2.8c-0.5-1-0.8-2.2-0.8-3.6
		c0-2.4,0.7-4.4,2.2-5.9c1.5-1.6,3.5-2.6,6.1-3c2.6-0.5,4.7-0.1,6.1,1c1.4,1.1,2.2,3.2,2.5,6.3l-2.9,1.3c-0.2-2.3-0.7-4-1.5-5
		c-0.8-1-2.1-1.4-4-1c-1.6,0.3-2.9,0.9-3.9,1.8c-1,0.9-1.4,2.2-1.4,3.7c0,0.9,0.2,1.8,0.6,2.5c0.4,0.7,1,1.4,2,2.1l6.4,4.7
		c1.6,1.2,2.9,2.5,3.9,3.9c0.9,1.4,1.4,3,1.4,4.8c0,2.5-0.8,4.6-2.3,6.3c-1.5,1.7-3.5,2.7-6,3.1C66.9,76,64.7,75.5,63.2,74.1z"/>
	<path class="st0" d="M82.5,37.8l3.4-0.6v18.4l9.6-20.2l3.3-0.6l-7.4,16.3l9,18.3l-3.3,0.6l-7.9-16l-3.2,6.3v11.8l-3.4,0.6V37.8z"/>
	<path class="st0" d="M114,64.6c-1.4-1.7-2-4.2-2-7.7V43.1c0-3.5,0.7-6.3,2-8.4c1.4-2.1,3.7-3.5,7.1-4.1c3.1-0.6,5.3-0.1,6.6,1.4
		c1.3,1.5,2,3.8,2,7v2.1l-3.2,0.6v-2c0-1.7-0.1-3-0.4-4c-0.3-1-0.8-1.7-1.6-2.2c-0.8-0.4-1.9-0.5-3.3-0.3c-1.6,0.3-2.8,0.8-3.6,1.6
		c-0.8,0.8-1.4,1.8-1.7,2.9c-0.3,1.2-0.4,2.6-0.4,4.3v14.9c0,2.7,0.4,4.6,1.3,5.7c0.8,1.1,2.3,1.4,4.5,1.1c2.1-0.4,3.5-1.3,4.2-2.6
		c0.7-1.4,1.1-3.3,1.1-5.9v-2.3l3.2-0.6v2.1c0,3.3-0.6,6-1.9,8.1c-1.3,2-3.5,3.3-6.6,3.9C117.7,66.8,115.3,66.3,114,64.6z"/>
	<path class="st0" d="M140.6,27.4l3.6-0.6l7.7,33.5l-3.3,0.6l-1.8-9l-8.6,1.5l-1.8,9.7l-3.3,0.6L140.6,27.4z M146.3,49.6l-3.8-18.1
		L138.6,51L146.3,49.6z"/>
	<path class="st0" d="M156.2,24.6l8.2-1.5c3.2-0.6,5.5-0.2,6.9,1c1.4,1.3,2,3.3,2,6.2c0,2.2-0.4,4.1-1.1,5.7c-0.7,1.6-2,2.7-3.9,3.4
		l5.5,16.8l-3.3,0.6l-5.3-16.2l-5.7,1v17.1l-3.4,0.6L156.2,24.6z M164.2,38.5c2.2-0.4,3.7-1.2,4.5-2.4c0.9-1.2,1.3-2.9,1.3-5.1
		c0-2.3-0.4-3.8-1.2-4.7c-0.8-0.9-2.3-1.1-4.5-0.7l-4.7,0.8v12.9L164.2,38.5z"/>
	<path class="st0" d="M188.1,18.9l8.2-1.5c3.2-0.6,5.5-0.2,6.9,1c1.4,1.3,2,3.3,2,6.2c0,2.2-0.4,4.1-1.1,5.7c-0.7,1.6-2,2.7-3.9,3.4
		l5.5,16.8l-3.3,0.6L197.1,35l-5.7,1v17.1l-3.4,0.6V18.9z M196.1,32.8c2.2-0.4,3.7-1.2,4.5-2.4c0.9-1.2,1.3-2.9,1.3-5.1
		c0-2.3-0.4-3.8-1.2-4.7c-0.8-0.9-2.3-1.1-4.5-0.7l-4.7,0.8v12.9L196.1,32.8z"/>
	<path class="st0" d="M210.9,14.8l13.1-2.3V15l-9.6,1.7v13.1l7.8-1.4v2.4l-7.8,1.4v14.4l9.7-1.7v2.5l-13.1,2.4V14.8z"/>
	<path class="st0" d="M228.7,11.6l2.5-0.4l11.5,25V9.1l2.9-0.5v34.9l-2.4,0.4l-11.5-25.3V46l-2.9,0.5V11.6z"/>
	<path class="st0" d="M255.7,9.3l-7.3,1.3V8.1l17.7-3.2v2.5l-7.1,1.3v32.4l-3.4,0.6V9.3z"/>
	<path class="st0" d="M274.6,3.4l3.6-0.6l7.7,33.5l-3.3,0.6l-1.8-9l-8.6,1.5l-1.8,9.7l-3.3,0.6L274.6,3.4z M280.3,25.6l-3.8-18.1
		l-3.8,19.5L280.3,25.6z"/>
	<path class="st0" d="M290.2,0.6l3.4-0.6v32.4l10.2-1.8v2.5l-13.6,2.4V0.6z"/>
</g>
</svg>
