<svg xmlns="http://www.w3.org/2000/svg" viewBox="0 0 155.91 86.69"><defs><style>.cls-1{fill:#6da457;}.cls-2{fill:#fff;}</style></defs><title>call-btn</title><g id="Layer_2" data-name="Layer 2"><g id="Слой_1" data-name="Слой 1"><polygon class="cls-1" points="155.91 56.69 0 86.69 0 30 155.91 0 155.91 56.69"/><path class="cls-2" d="M27.51,69.68a16.3,16.3,0,1,1,16.3-16.3A16.32,16.32,0,0,1,27.51,69.68Zm0-30.1a13.8,13.8,0,1,0,13.8,13.8A13.81,13.81,0,0,0,27.51,39.58Z"/><path class="cls-2" d="M31.82,61.36a4.68,4.68,0,0,0,2.06-.75c.52-.41,1.51-1.23,1.61-1.91s-.85-1.5-1.35-2-1.4-1.77-2.24-1.83-1.47.9-2,1.41c-.86.83-1.35.29-2.17-.38A18.16,18.16,0,0,1,25.67,54c-.46-.49-1.62-1.52-1.64-2.22s1.19-1.39,1.6-2c.63-.86.1-1.45-.54-2.11A15,15,0,0,0,23,45.58c-.92-.64-1.56.17-2.19.8C18.11,49,20.57,53,22.45,55.44A16.82,16.82,0,0,0,26.24,59,12.5,12.5,0,0,0,31.82,61.36Z"/><path class="cls-2" d="M71.39,58.36C70.3,57,69.76,54.87,69.76,52V40.56a13.21,13.21,0,0,1,1.63-7c1.08-1.76,3-2.91,5.68-3.43,2.47-.48,4.23-.11,5.28,1.09s1.57,3.13,1.57,5.79v1.75l-2.57.49V37.58A13.92,13.92,0,0,0,81,34.27a2.67,2.67,0,0,0-1.25-1.77,3.85,3.85,0,0,0-2.67-.2,5.53,5.53,0,0,0-2.89,1.34,4.88,4.88,0,0,0-1.35,2.42,15,15,0,0,0-.36,3.58v12.3c0,2.23.34,3.8,1,4.69s1.87,1.17,3.58.84a4.45,4.45,0,0,0,3.39-2.2,11.27,11.27,0,0,0,.85-4.89V48.49l2.57-.5v1.72a12.81,12.81,0,0,1-1.53,6.67,7.45,7.45,0,0,1-5.32,3.27Q73,60.43,71.39,58.36Z"/><path class="cls-2" d="M92.69,27.41l2.85-.55,6.13,27.7L99,55.07l-1.43-7.46-6.88,1.33-1.46,8-2.64.51Zm4.53,18.31-3.07-15L91.08,46.9Z"/><path class="cls-2" d="M105.17,25l2.71-.53V51.33l8.2-1.58v2l-10.91,2.1Z"/><path class="cls-2" d="M118.79,22.38l2.71-.52V48.71l8.2-1.58v2l-10.91,2.1Z"/></g></g></svg>