<?xml version="1.0" encoding="utf-8"?>
<!-- Generator: Adobe Illustrator 22.0.1, SVG Export Plug-In . SVG Version: 6.00 Build 0)  -->
<svg version="1.1" id="Слой_1" xmlns="http://www.w3.org/2000/svg" xmlns:xlink="http://www.w3.org/1999/xlink" x="0px" y="0px"
	 viewBox="0 0 248.8 97" style="enable-background:new 0 0 248.8 97;" xml:space="preserve">
<style type="text/css">
	.st0{fill:#CB3540;}
</style>
<g>
	<path class="st0" d="M0,48.4l10-1.9c4.2-0.8,7.1-0.3,8.7,1.5c1.7,1.8,2.5,4.6,2.5,8.4c0,2.4-0.4,4.7-1.3,6.8
		c-0.8,2.1-2.3,3.6-4.4,4.6c2.5,0.3,4.3,1.4,5.3,3.5c1,2.1,1.5,4.5,1.5,7.2c0,4.4-0.7,8-2.2,10.8c-1.5,2.8-4.4,4.7-8.6,5.5L0,97
		V48.4z M11.5,67.4c2.5-0.5,4.2-1.6,5.2-3.5c1-1.8,1.5-4.2,1.5-7c0-3.1-0.6-5.3-1.8-6.7c-1.2-1.4-3.6-1.7-7.1-1l-6,1.2V69L11.5,67.4
		z M11,92.2c2.1-0.4,3.8-1.1,4.9-2.2c1.2-1,2-2.4,2.5-4.2s0.7-4,0.7-6.7c0-3.2-0.6-5.7-1.8-7.4c-1.2-1.7-3.1-2.3-5.9-1.8l-8.3,1.6
		v22.1L11,92.2z"/>
	<path class="st0" d="M33.9,87.2c-1.8-2.2-2.7-5.6-2.7-10.1V55.8c0-4.5,0.9-8.1,2.7-10.9c1.8-2.8,4.9-4.6,9.3-5.5
		c4.3-0.8,7.4-0.2,9.2,1.9c1.8,2.1,2.8,5.4,2.8,9.8v21.3c0,4.6-0.9,8.3-2.7,11.1c-1.8,2.9-4.9,4.7-9.3,5.6
		C38.8,90.1,35.7,89.4,33.9,87.2z M50.1,82.4c1.3-2.1,1.9-5,1.9-8.6V51.3c0-3.6-0.6-6.2-1.9-7.8c-1.3-1.6-3.5-2.1-6.8-1.4
		c-3.3,0.6-5.5,2-6.8,4.1c-1.3,2.1-1.9,4.9-1.9,8.5v22.4c0,3.6,0.6,6.3,1.9,7.9c1.3,1.6,3.5,2.1,6.8,1.5
		C46.5,85.9,48.8,84.5,50.1,82.4z"/>
	<path class="st0" d="M67.9,80.6c-1.8-2.2-2.7-5.6-2.7-10.1V49.2c0-4.5,0.9-8.1,2.7-10.9c1.8-2.8,4.9-4.6,9.3-5.5
		c4.3-0.8,7.4-0.2,9.2,1.9c1.8,2.1,2.8,5.4,2.8,9.8v21.3c0,4.6-0.9,8.3-2.7,11.1c-1.8,2.9-4.9,4.7-9.3,5.6S69.7,82.8,67.9,80.6z
		 M84,75.8c1.3-2.1,1.9-5,1.9-8.6V44.7c0-3.6-0.6-6.2-1.9-7.8s-3.5-2.1-6.8-1.4c-3.3,0.6-5.6,2-6.8,4.1s-1.9,4.9-1.9,8.5v22.4
		c0,3.6,0.6,6.3,1.9,7.9c1.3,1.6,3.5,2.1,6.8,1.5C80.5,79.3,82.8,77.9,84,75.8z"/>
	<path class="st0" d="M100.1,28.9l3.3-0.6v27.3l14.1-30l3.2-0.6l-10.3,22.6L123.2,73l-3.2,0.6l-11.5-23L103.4,61v15.9l-3.3,0.6V28.9
		z"/>
	<path class="st0" d="M145.1,20.2l2.6-0.5l16.5,37.8v-41l2.9-0.6v48.6l-2.6,0.5L148,27.1v41.1l-2.9,0.6V20.2z"/>
	<path class="st0" d="M180.7,58.7c-1.8-2.2-2.7-5.6-2.7-10.1V27.3c0-4.5,0.9-8.1,2.7-10.9c1.8-2.8,4.9-4.6,9.3-5.5
		c4.3-0.8,7.4-0.2,9.2,1.9c1.8,2.1,2.8,5.4,2.8,9.8V44c0,4.6-0.9,8.3-2.7,11.1c-1.8,2.9-4.9,4.7-9.3,5.6
		C185.6,61.6,182.5,60.9,180.7,58.7z M196.8,53.8c1.3-2.1,1.9-5,1.9-8.6V22.8c0-3.6-0.6-6.2-1.9-7.8c-1.3-1.6-3.5-2.1-6.8-1.4
		c-3.3,0.6-5.5,2-6.8,4.1c-1.3,2.1-1.9,4.9-1.9,8.5v22.4c0,3.6,0.6,6.3,1.9,7.9c1.3,1.6,3.5,2.1,6.8,1.5
		C193.3,57.4,195.6,56,196.8,53.8z"/>
	<path class="st0" d="M210.5,7.5l2.9-0.6l7.1,40.8l7.8-42.6l3.1-0.6l8,39.5L246,0.5l2.8-0.5L241,50.1l-2.8,0.5l-8.3-40.9l-8.1,44.1
		l-2.8,0.5L210.5,7.5z"/>
</g>
</svg>
