<svg xmlns="http://www.w3.org/2000/svg" viewBox="0 0 155.91 86.69"><defs><style>.cls-1{fill:#6da457;}.cls-2,.cls-3{fill:#fff;}.cls-3{fill-rule:evenodd;}</style></defs><title>text-btn</title><g id="Layer_2" data-name="Layer 2"><g id="Слой_1" data-name="Слой 1"><polygon class="cls-1" points="155.91 56.69 0 86.69 0 30 155.91 0 155.91 56.69"/><path class="cls-2" d="M75.64,31.65l-5.82,1.12V30.66L84,27.93V30l-5.66,1.1V57.9l-2.71.52Z"/><path class="cls-2" d="M86.33,27.48l10.45-2v2.11l-7.7,1.48V39.9l6.27-1.21v2l-6.27,1.2V53.8l7.77-1.49v2l-10.52,2Z"/><path class="cls-2" d="M104.76,37.77,98.6,25.12l2.53-.48,5.17,10.52,5-12.47,2.61-.51-6.39,15.39L114.07,51l-2.6.5L106,40.39l-4.85,13.12L98.52,54Z"/><path class="cls-2" d="M120.16,23.07l-5.81,1.12v-2.1l14.19-2.73v2.1l-5.67,1.09V49.33l-2.71.52Z"/><g id="WA_Logo" data-name="WA Logo"><path class="cls-3" d="M40.91,42.44a15,15,0,0,0-23.54,18l-2.12,7.76,7.93-2.08A15,15,0,0,0,30.33,68h0A15,15,0,0,0,40.91,42.44Zm-10.58,23h0A12.44,12.44,0,0,1,24,63.72l-.45-.27-4.71,1.23,1.26-4.59-.3-.47a12.43,12.43,0,1,1,10.53,5.83Zm6.82-9.31c-.37-.19-2.21-1.09-2.55-1.22s-.59-.18-.84.19-1,1.22-1.19,1.47-.43.28-.81.09a10.27,10.27,0,0,1-3-1.86,11.45,11.45,0,0,1-2.08-2.58c-.22-.38,0-.58.16-.77a7.76,7.76,0,0,0,.56-.65,2.87,2.87,0,0,0,.38-.62.72.72,0,0,0,0-.66c-.1-.19-.84-2-1.15-2.77s-.62-.63-.85-.65H25a1.36,1.36,0,0,0-1,.47,4.2,4.2,0,0,0-1.31,3.12,7.21,7.21,0,0,0,1.53,3.86c.19.25,2.63,4,6.38,5.64a20.84,20.84,0,0,0,2.13.79,5,5,0,0,0,2.36.15,3.83,3.83,0,0,0,2.52-1.78,3.16,3.16,0,0,0,.22-1.77C37.77,56.42,37.53,56.33,37.15,56.14Z"/></g></g></g></svg>