<svg id="Слой_1" xmlns="http://www.w3.org/2000/svg" viewBox="0 0 150.4 54"><style>.st1{fill:#fff}</style><path d="M123.6 54H26.8C12 54 0 42 0 27.2v-.4C0 12 12 0 26.8 0h96.8c14.8 0 26.8 12 26.8 26.8v.4c0 14.8-12 26.8-26.8 26.8z" fill="#00aeef"/><path class="st1" d="M28 43.4c-9 0-16.3-7.3-16.3-16.3S19 10.8 28 10.8s16.3 7.3 16.3 16.3S37 43.4 28 43.4zm0-30.1c-7.6 0-13.8 6.2-13.8 13.8S20.4 40.9 28 40.9c7.6 0 13.8-6.2 13.8-13.8S35.6 13.3 28 13.3z"/><path class="st1" d="M32.3 35.1c.5.1 1.8-.5 2.1-.8.5-.4 1.5-1.2 1.6-1.9.1-.8-.9-1.5-1.4-2-.6-.6-1.4-1.8-2.2-1.8-.8-.1-1.5.9-2 1.4-.9.8-1.4.3-2.2-.4-.7-.6-1.4-1.3-2.1-2-.5-.5-1.6-1.5-1.6-2.2 0-.7 1.2-1.4 1.6-2 .6-.9.1-1.5-.5-2.1-.7-.7-1.4-1.5-2.1-2.1-.9-.6-1.6.2-2.2.8-2.7 2.6-.2 6.7 1.7 9.1 1.1 1.4 2.4 2.6 3.8 3.6 1.7 1.2 3.3 2 5.5 2.4zm31.6 4.6c-1.1-1.6-1.6-3.8-1.6-6.6V21.6c0-2.9.5-5.1 1.6-6.7 1.1-1.6 3-2.3 5.7-2.3 2.5 0 4.2.7 5.3 2.1s1.6 3.4 1.6 6.1v1.7h-2.6v-1.7c0-1.4-.1-2.5-.3-3.4s-.6-1.5-1.2-2-1.5-.7-2.7-.7c-1.3 0-2.2.3-2.9.8-.7.5-1.1 1.2-1.4 2.2-.2.9-.4 2.1-.4 3.5v12.3c0 2.2.3 3.9 1 4.9.7 1 1.9 1.5 3.6 1.5 1.7 0 2.8-.5 3.4-1.6.6-1 .9-2.6.9-4.7v-1.9h2.6v1.7c0 2.8-.5 4.9-1.5 6.4S72.2 42 69.7 42c-2.8.1-4.7-.7-5.8-2.3zm21.3-26.8h2.9l6.1 28.9h-2.7L90.1 34h-6.9l-1.5 7.7h-2.6l6.1-28.8zm4.6 19.2l-3.1-15.6-3.1 15.6h6.2zm7.9-19.2h2.7v26.8h8.2v2H97.7V12.9zm13.6 0h2.7v26.8h8.2v2h-10.9V12.9z"/></svg>