<svg id="Слой_1" xmlns="http://www.w3.org/2000/svg" viewBox="0 0 150.4 54"><style>.st2{fill:#fff}</style><path d="M123.6 54H26.8C12 54 0 42 0 27.2v-.4C0 12 12 0 26.8 0h96.8c14.8 0 26.8 12 26.8 26.8v.4c0 14.8-12 26.8-26.8 26.8z" fill="#009444"/><path class="st2" d="M66 15h-5.8v-2.1h14.2V15h-5.7v26.8H66V15zm10.7-2.1h10.4V15h-7.7v10.8h6.3v2h-6.3v11.9h7.8v2H76.7V12.9zm18.4 13.8L89 12.9h2.5l5.2 11.5 5-11.5h2.6L97.9 27l6.6 14.7h-2.6l-5.5-12.2-4.8 12.2H89l6.1-15zM110.5 15h-5.8v-2.1h14.2V15h-5.7v26.8h-2.7V15z"/><path class="st2" d="M38.7 16.2c-2.8-2.8-6.6-4.4-10.6-4.4-8.2 0-15 6.7-15 15 0 2.6.7 5.2 2 7.5L13 42l7.9-2.1c2.2 1.2 4.6 1.8 7.1 1.8 8.2 0 15-6.7 15-15 .1-3.9-1.5-7.7-4.3-10.5zm-10.6 23c-2.2 0-4.4-.6-6.3-1.7l-.5-.3-4.7 1.2 1.3-4.6-.3-.5c-1.2-2-1.9-4.3-1.9-6.6 0-6.9 5.6-12.4 12.4-12.4 3.3 0 6.4 1.3 8.8 3.6 2.3 2.3 3.6 5.5 3.6 8.8 0 6.9-5.6 12.5-12.4 12.5zm6.8-9.3c-.4-.2-2.2-1.1-2.6-1.2-.3-.1-.6-.2-.8.2-.2.4-1 1.2-1.2 1.5-.2.2-.4.3-.8.1-.4-.2-1.6-.6-3-1.9-1.1-1-1.9-2.2-2.1-2.6s0-.6.2-.8c.2-.2.4-.4.6-.7.2-.2.2-.4.4-.6.1-.2.1-.5 0-.7s-.8-2-1.2-2.8c-.3-.7-.6-.6-.8-.6h-.7c-.2 0-.7.1-1 .5s-1.3 1.3-1.3 3.1 1.3 3.6 1.5 3.9c.2.2 2.6 4 6.4 5.6.9.4 1.6.6 2.1.8.9.3 1.7.2 2.4.1s2.2-.9 2.5-1.8.3-1.6.2-1.8c-.2 0-.4-.1-.8-.3z" id="WA_Logo"/></svg>