<svg xmlns="http://www.w3.org/2000/svg" viewBox="0 0 150 54"><defs><style>.cls-1{fill:#51924b;}.cls-2{font-size:35.65px;font-family:Oswald-Light, Oswald Light;}.cls-2,.cls-4{fill:#fff;}.cls-3{letter-spacing:0.01em;}.cls-4{fill-rule:evenodd;}</style></defs><title>Asset 2</title><g id="Layer_2" data-name="Layer 2"><g id="Слой_1" data-name="Слой 1"><rect class="cls-1" width="150" height="54" rx="26.77" ry="26.77"/><text class="cls-2" transform="translate(59.9 41.29)">TE<tspan class="cls-3" x="35.26" y="0">X</tspan><tspan x="55.9" y="0">T</tspan></text><g id="WA_Logo" data-name="WA Logo"><path class="cls-4" d="M41.78,21.14A11.16,11.16,0,0,0,41,19.22,15,15,0,1,0,14.65,33.51l-2.12,7.75,7.93-2.08A14.93,14.93,0,0,0,27.61,41h0A15,15,0,0,0,41.78,21.14Zm-2.46,9.72A12.26,12.26,0,0,1,27.61,39h0a12.44,12.44,0,0,1-6.33-1.73L20.83,37l-4.71,1.23,1.26-4.59-.3-.47a12.44,12.44,0,1,1,22.24-2.31Zm-4.89-1.44c-.37-.18-2.21-1.09-2.55-1.21s-.6-.19-.84.18-1,1.22-1.19,1.47-.43.28-.81.09a10,10,0,0,1-3-1.85A11.43,11.43,0,0,1,24,25.51c-.22-.38,0-.58.16-.76s.38-.44.56-.66a2.65,2.65,0,0,0,.38-.62.72.72,0,0,0,0-.66c-.1-.18-.85-2-1.16-2.77s-.61-.63-.84-.64l-.71,0a1.39,1.39,0,0,0-1,.47A4.22,4.22,0,0,0,20,23a7.26,7.26,0,0,0,1.53,3.87,16.66,16.66,0,0,0,6.38,5.64c.89.38,1.59.61,2.13.79a5.14,5.14,0,0,0,2.36.14,3.83,3.83,0,0,0,2.52-1.77,3.19,3.19,0,0,0,.22-1.78C35.05,29.7,34.8,29.61,34.43,29.42Z"/></g></g></g></svg>